<mxfile host="Electron" modified="2023-05-04T03:19:29.896Z" agent="Mozilla/5.0 (X11; Linux x86_64) AppleWebKit/537.36 (KHTML, like Gecko) draw.io/21.2.1 Chrome/112.0.5615.87 Electron/24.1.2 Safari/537.36" etag="Kbt7L8C-cyjyZQIInxmk" version="21.2.1" type="device">
  <diagram name="第 1 页" id="mVjXB5qJo2TRsKde76mf">
    <mxGraphModel dx="1116" dy="755" grid="1" gridSize="10" guides="1" tooltips="1" connect="1" arrows="1" fold="1" page="1" pageScale="1" pageWidth="827" pageHeight="1169" math="0" shadow="0">
      <root>
        <mxCell id="0" />
        <mxCell id="1" parent="0" />
        <mxCell id="jTkGocm5xuUPqiZlzL5u-1" value="" style="rounded=1;whiteSpace=wrap;html=1;fillColor=#f5f5f5;strokeColor=#666666;fontColor=#333333;container=0;" parent="1" vertex="1">
          <mxGeometry x="259" y="160" width="440" height="150" as="geometry" />
        </mxCell>
        <mxCell id="jTkGocm5xuUPqiZlzL5u-2" value="&lt;font style=&quot;font-size: 14px;&quot;&gt;OBJ_INUSE&lt;/font&gt;" style="rounded=0;whiteSpace=wrap;html=1;fillColor=#dae8fc;strokeColor=#6c8ebf;container=0;" parent="1" vertex="1">
          <mxGeometry x="419" y="200" width="120" height="60" as="geometry" />
        </mxCell>
        <mxCell id="jTkGocm5xuUPqiZlzL5u-3" value="REDZONE_INACTIVE" style="rounded=0;whiteSpace=wrap;html=1;fillColor=#fa6800;fontColor=#000000;strokeColor=#C73500;container=0;" parent="1" vertex="1">
          <mxGeometry x="539" y="200" width="140" height="60" as="geometry" />
        </mxCell>
        <mxCell id="jTkGocm5xuUPqiZlzL5u-4" value="" style="shape=curlyBracket;whiteSpace=wrap;html=1;rounded=1;labelPosition=left;verticalLabelPosition=middle;align=right;verticalAlign=middle;direction=north;container=0;" parent="1" vertex="1">
          <mxGeometry x="279" y="260" width="140" height="20" as="geometry" />
        </mxCell>
        <mxCell id="jTkGocm5xuUPqiZlzL5u-5" value="" style="shape=curlyBracket;whiteSpace=wrap;html=1;rounded=1;labelPosition=left;verticalLabelPosition=middle;align=right;verticalAlign=middle;direction=north;container=0;" parent="1" vertex="1">
          <mxGeometry x="539" y="260" width="140" height="20" as="geometry" />
        </mxCell>
        <mxCell id="jTkGocm5xuUPqiZlzL5u-6" value="&lt;font style=&quot;font-size: 14px;&quot;&gt;64 B&lt;/font&gt;" style="text;html=1;align=center;verticalAlign=middle;resizable=0;points=[];autosize=1;strokeColor=none;fillColor=none;container=0;" parent="1" vertex="1">
          <mxGeometry x="324" y="280" width="50" height="30" as="geometry" />
        </mxCell>
        <mxCell id="jTkGocm5xuUPqiZlzL5u-7" value="&lt;span style=&quot;font-size: 14px;&quot;&gt;64 B&lt;/span&gt;" style="text;html=1;align=center;verticalAlign=middle;resizable=0;points=[];autosize=1;strokeColor=none;fillColor=none;container=0;" parent="1" vertex="1">
          <mxGeometry x="584" y="280" width="50" height="30" as="geometry" />
        </mxCell>
        <mxCell id="jTkGocm5xuUPqiZlzL5u-8" value="slab obj" style="text;html=1;align=center;verticalAlign=middle;resizable=0;points=[];autosize=1;strokeColor=none;fillColor=none;container=0;" parent="1" vertex="1">
          <mxGeometry x="269" y="160" width="60" height="30" as="geometry" />
        </mxCell>
        <mxCell id="jTkGocm5xuUPqiZlzL5u-9" value="REDZONE_INACTIVE" style="rounded=0;whiteSpace=wrap;html=1;fillColor=#fa6800;fontColor=#000000;strokeColor=#C73500;container=0;" parent="1" vertex="1">
          <mxGeometry x="279" y="200" width="140" height="60" as="geometry" />
        </mxCell>
        <mxCell id="jTkGocm5xuUPqiZlzL5u-10" value="" style="rounded=1;whiteSpace=wrap;html=1;fillColor=#f5f5f5;strokeColor=#666666;fontColor=#333333;container=0;" parent="1" vertex="1">
          <mxGeometry x="259" y="350" width="440" height="150" as="geometry" />
        </mxCell>
        <mxCell id="jTkGocm5xuUPqiZlzL5u-11" value="&lt;span style=&quot;font-size: 14px;&quot;&gt;OBJ_FREE&lt;/span&gt;" style="rounded=0;whiteSpace=wrap;html=1;fillColor=#dae8fc;strokeColor=#6c8ebf;container=0;" parent="1" vertex="1">
          <mxGeometry x="419" y="390" width="120" height="60" as="geometry" />
        </mxCell>
        <mxCell id="jTkGocm5xuUPqiZlzL5u-12" value="REDZONE_ACTIVE" style="rounded=0;whiteSpace=wrap;html=1;fillColor=#fa6800;fontColor=#000000;strokeColor=#C73500;container=0;" parent="1" vertex="1">
          <mxGeometry x="539" y="390" width="140" height="60" as="geometry" />
        </mxCell>
        <mxCell id="jTkGocm5xuUPqiZlzL5u-13" value="" style="shape=curlyBracket;whiteSpace=wrap;html=1;rounded=1;labelPosition=left;verticalLabelPosition=middle;align=right;verticalAlign=middle;direction=north;container=0;" parent="1" vertex="1">
          <mxGeometry x="279" y="450" width="140" height="20" as="geometry" />
        </mxCell>
        <mxCell id="jTkGocm5xuUPqiZlzL5u-14" value="" style="shape=curlyBracket;whiteSpace=wrap;html=1;rounded=1;labelPosition=left;verticalLabelPosition=middle;align=right;verticalAlign=middle;direction=north;container=0;" parent="1" vertex="1">
          <mxGeometry x="539" y="450" width="140" height="20" as="geometry" />
        </mxCell>
        <mxCell id="jTkGocm5xuUPqiZlzL5u-15" value="&lt;font style=&quot;font-size: 14px;&quot;&gt;64 B&lt;/font&gt;" style="text;html=1;align=center;verticalAlign=middle;resizable=0;points=[];autosize=1;strokeColor=none;fillColor=none;container=0;" parent="1" vertex="1">
          <mxGeometry x="324" y="470" width="50" height="30" as="geometry" />
        </mxCell>
        <mxCell id="jTkGocm5xuUPqiZlzL5u-16" value="&lt;span style=&quot;font-size: 14px;&quot;&gt;64 B&lt;/span&gt;" style="text;html=1;align=center;verticalAlign=middle;resizable=0;points=[];autosize=1;strokeColor=none;fillColor=none;container=0;" parent="1" vertex="1">
          <mxGeometry x="584" y="470" width="50" height="30" as="geometry" />
        </mxCell>
        <mxCell id="jTkGocm5xuUPqiZlzL5u-17" value="slab obj" style="text;html=1;align=center;verticalAlign=middle;resizable=0;points=[];autosize=1;strokeColor=none;fillColor=none;container=0;" parent="1" vertex="1">
          <mxGeometry x="269" y="350" width="60" height="30" as="geometry" />
        </mxCell>
        <mxCell id="jTkGocm5xuUPqiZlzL5u-18" value="REDZONE_ACTIVE" style="rounded=0;whiteSpace=wrap;html=1;fillColor=#fa6800;fontColor=#000000;strokeColor=#C73500;container=0;" parent="1" vertex="1">
          <mxGeometry x="279" y="390" width="140" height="60" as="geometry" />
        </mxCell>
        <mxCell id="jTkGocm5xuUPqiZlzL5u-19" value="对象可分配或已分配" style="text;html=1;align=center;verticalAlign=middle;resizable=0;points=[];autosize=1;strokeColor=none;fillColor=none;fontSize=20;container=0;" parent="1" vertex="1">
          <mxGeometry x="39" y="215" width="200" height="40" as="geometry" />
        </mxCell>
        <mxCell id="jTkGocm5xuUPqiZlzL5u-20" value="对象已释放" style="text;html=1;align=center;verticalAlign=middle;resizable=0;points=[];autosize=1;strokeColor=none;fillColor=none;fontSize=20;container=0;" parent="1" vertex="1">
          <mxGeometry x="79" y="405" width="120" height="40" as="geometry" />
        </mxCell>
      </root>
    </mxGraphModel>
  </diagram>
</mxfile>
